<svg xmlns="http://www.w3.org/2000/svg" width="143" height="33" fill="none"><path fill="#000" d="M.8765 6.7373v25.8711h3.7584V13.8746h.2428l7.7213 18.6959h3.1192l7.7213-18.6833h.2429v18.7212h3.7584V6.7373H22.647L14.312 26.848h-.3068L5.6703 6.7373H.8765ZM41.3398 33c4.2825 0 7.3122-2.0843 8.1815-5.2424l-3.6178-.6443c-.6903 1.8317-2.3521 2.7665-4.5254 2.7665-3.2726 0-5.4713-2.097-5.5736-5.8362h13.9597v-1.339c0-7.011-4.2442-9.7522-8.6929-9.7522-5.4713 0-9.0763 4.1182-9.0763 10.0806 0 6.0257 3.5538 9.967 9.3448 9.967Zm-5.5225-11.786c.1534-2.7539 2.1732-5.1414 5.2796-5.1414 2.9658 0 4.9089 2.1728 4.9217 5.1414H35.8173ZM68.7191 17.9422c-.7926-3.0191-3.1831-4.9898-7.4273-4.9898-4.4359 0-7.5807 2.3117-7.5807 5.7477 0 2.7539 1.6875 4.5856 5.3691 5.3941l3.3238.72c1.892.4169 2.774 1.2506 2.774 2.4633 0 1.5033-1.6235 2.6781-4.1291 2.6781-2.2882 0-3.7584-.9727-4.2186-2.8802l-3.6944.5558C53.7751 31.0672 56.6642 33 61.0745 33c4.7427 0 8.0281-2.4886 8.0281-6.0004 0-2.7412-1.7641-4.434-5.3691-5.2551l-3.1192-.7074c-2.1604-.5053-3.0937-1.2253-3.0809-2.5391-.0128-1.4906 1.6236-2.5517 3.7968-2.5517 2.3777 0 3.4771 1.3011 3.9245 2.6023l3.4644-.6064ZM82.4711 13.2051h-4.0269V8.5563h-3.8223v4.6488h-2.8763v3.0317h2.8763v11.4576c-.0128 3.5244 2.7102 5.2298 5.7271 5.1666 1.2144-.0126 2.0326-.24 2.48-.4042l-.6903-3.1202c-.2557.0505-.7287.1642-1.3423.1642-1.24 0-2.3522-.4042-2.3522-2.5896V16.2368h4.0269v-3.0317ZM94.7593 33c5.5357 0 9.1527-4.0045 9.1527-10.0049 0-6.0382-3.617-10.0427-9.1527-10.0427-5.5353 0-9.1531 4.0045-9.1531 10.0427C85.6062 28.9955 89.224 33 94.7593 33Zm.0128-3.1707c-3.6178 0-5.3052-3.1202-5.3052-6.8468 0-3.7139 1.6874-6.872 5.3052-6.872 3.5922 0 5.2799 3.1581 5.2799 6.872 0 3.7266-1.6877 6.8468-5.2799 6.8468ZM108.053 8.8932h1.057V5.5246h1.909c.076 0 .149 0 .221-.0043l1.841 3.3729h1.227l-1.973-3.5623c1.113-.3748 1.632-1.2717 1.632-2.417 0-1.5243-.92-2.6444-2.965-2.6444h-2.949v8.6237Zm1.057-4.3119V1.196h1.858c1.414 0 1.96.6821 1.96 1.718 0 1.0358-.546 1.6674-1.943 1.6674h-1.875ZM119.717 6.2488c0 1.2127-.938 1.7686-1.688 1.7686-.835 0-1.431-.6064-1.431-1.5496V2.4254h-1.006v4.1098c0 1.6506.886 2.4422 2.114 2.4422.988 0 1.636-.5221 1.943-1.179h.068v1.0948h1.005V2.4254h-1.005v3.8234ZM127.201 3.874c-.316-.918-1.023-1.5328-2.319-1.5328-1.38 0-2.403.7748-2.403 1.8696 0 .8927.537 1.4906 1.739 1.7685l1.091.2527c.66.1516.971.4632.971.9095 0 .5558-.596 1.0106-1.534 1.0106-.822 0-1.338-.3495-1.517-1.0443l-.954.2358c.234 1.099 1.15 1.6844 2.488 1.6844 1.521 0 2.557-.8212 2.557-1.937 0-.9011-.571-1.4696-1.739-1.7517l-.971-.2358c-.776-.1895-1.125-.4464-1.125-.9432 0-.5559.596-.9601 1.397-.9601.878 0 1.24.48 1.415.9264l.904-.2527ZM133.47 3.874c-.315-.918-1.023-1.5328-2.318-1.5328-1.381 0-2.404.7748-2.404 1.8696 0 .8927.537 1.4906 1.739 1.7685l1.091.2527c.66.1516.971.4632.971.9095 0 .5558-.596 1.0106-1.534 1.0106-.822 0-1.338-.3495-1.517-1.0443l-.954.2358c.234 1.099 1.15 1.6844 2.488 1.6844 1.522 0 2.557-.8212 2.557-1.937 0-.9011-.571-1.4696-1.738-1.7517l-.972-.2358c-.775-.1895-1.125-.4464-1.125-.9432 0-.5559.597-.9601 1.398-.9601.878 0 1.24.48 1.414.9264l.904-.2527ZM135.103 8.8932h1.006V2.4254h-1.006v6.4678Zm.511-7.5457c.392 0 .716-.3032.716-.6738 0-.3705-.324-.6737-.716-.6737-.392 0-.716.3032-.716.6737 0 .3706.324.6738.716.6738ZM139.877 9.0448c1.142 0 1.738-.6064 1.943-1.0274h.051v.8758h1.005V4.6319c0-2.0549-1.585-2.2907-2.42-2.2907-.989 0-2.113.3369-2.625 1.5159l.955.3369c.221-.4717.745-.977 1.704-.977.925 0 1.381.4843 1.381 1.3138v.0337c0 .48-.494.438-1.688.5895-1.214.1558-2.539.421-2.539 1.9033 0 1.2632.988 1.9875 2.233 1.9875Zm.153-.8927c-.801 0-1.381-.3537-1.381-1.0443 0-.758.699-.9937 1.483-1.0948.426-.0505 1.568-.1684 1.739-.3705v.9095c0 .8085-.648 1.6001-1.841 1.6001Z"/></svg>